<?xml version="1.0" encoding="utf-8"?>
<!-- Generator: Adobe Illustrator 25.4.1, SVG Export Plug-In . SVG Version: 6.00 Build 0)  -->
<svg version="1.1" id="Layer_1" xmlns="http://www.w3.org/2000/svg" xmlns:xlink="http://www.w3.org/1999/xlink" x="0px" y="0px"
	 viewBox="0 0 53.9 63.3" style="enable-background:new 0 0 53.9 63.3;" xml:space="preserve">
<style type="text/css">
	.st0{fill:#BDBDBD;}
	.st1{display:none;}
	.st2{display:inline;}
	.st3{fill:#333333;}
</style>
<g>
	<path class="st0" d="M45.5,63.3H9.2c0,0-9.2,0-9.2-10.4V10.4c0.4-1.7,1.7-5,6.2-5c3.7,0,5.8,1.7,5.8,5v35c0.4,0.8,2.9,5.8,14.6,5.8
		c12.5,0,15.8-5.4,16.2-6.2V10c0-1.7,1.2-5,5.4-5c2.9,0,4.6,1.7,5.4,4.6l0,0l0,0c0.4,1.2,0.4,6.7,0,43.7c0,0,0.4,4.2-2.5,7.1
		C50,62.5,48,63.3,45.5,63.3z M2.2,10.4v42.5c0,8.3,7.1,8.7,7.1,8.7h36.2c2.1,0,3.7-0.4,4.6-1.7c2.1-2.1,1.7-5.8,1.7-5.8
		c0-16.2,0-40.8,0-43.3c0,0,0,0,0-0.4c-0.4-1.2-1.2-2.9-3.7-2.9c-3.3,0-3.3,2.9-3.3,3.3v35c0,1.7-4.6,7.9-17.9,7.9
		c-13.7,0-16.2-7.1-16.6-7.5l0,0V10.9c0-1.2,0-2.9-3.7-2.9C3,7.5,2.2,10,2.2,10.4z"/>
	<path class="st0" d="M4.7,7.5c0,0,0-2.9,2.1-5C8.4,0.9,10.5,0,13.4,0h29.5C45.4,0.4,50,2.5,50,7.5h-2.1c0-4.6-4.6-5.4-5.4-5.4H13.4
		c-2.5,0-4.2,0.4-5.4,1.7C6.3,5.4,6.8,7.5,6.8,7.5H4.7z"/>
</g>
<g id="Layer_2_00000139255274414490067040000003413688518995230080_" class="st1">
	<g class="st2">
		<g>
			<path class="st0" d="M13.9,60.3c-3.8-2.4-7.5-6.5-9.5-13.3l-5-28.6C-0.7,16.2,0,12.2,4,11.5c0,0,2.6-0.8,4.6,0.8
				c1.8,1.4,2.7,3.8,2.7,7.6l1.8,26.3c2.2-2.2,7.5-6.9,14.7-7.5c5.2-0.3,10.5,1.8,15.3,6.3l0.1-25.4c-0.1-0.3-0.3-8.5,4.7-8.9
				c0.3-0.1,2.6-0.4,4.3,1.2s2.3,4.4,1.9,8.9l-2.7,24.4c0,0-1.2,17.6-21.6,18.6C29.6,63.5,21.1,64.8,13.9,60.3z M7.7,12.9
				c-1.5-0.9-3.2-0.5-3.2-0.5c-4.2,0.6-4,5.5-3.8,5.6l5,28.6c5.1,18.5,24,15.8,24.2,15.9c19.5-0.9,20.6-17.4,20.7-17.6l2.7-24.4
				c0.6-3.8-0.1-6.6-1.4-7.7c-1.4-1.1-3.3-0.9-3.3-0.9l0,0c-4.1,0.4-3.7,7.8-3.7,7.8l-0.2,26.5c-0.1,0.2-0.3,0.4-0.4,0.6
				c-0.3,0.1-0.3,0.1-0.6-0.1c-5-4.9-10.1-7.1-15.5-7c-8.6,0.6-14.6,7.8-14.7,8c-0.1,0.2-0.5,0.3-0.7,0.2s-0.4-0.3-0.3-0.5
				l-1.7-27.7c0-3.3-0.7-5.5-2.3-6.8C7.7,12.9,7.7,12.9,7.7,12.9z M48.1,11.3L48.1,11.3L48.1,11.3z"/>
		</g>
		<g>
			<path class="st0" d="M5.2,12.3v-0.6c0.1-2,0.6-3.8,1.9-5c2.4-2.4,5.9-2.3,6.2-2.4l26.9-0.5c3.1-0.2,5.3,0.6,6.9,2.2
				c2.1,1.9,2.2,4.6,2.2,4.6l-0.1,0.6l-1.3,0.1l0.1-0.6c0-0.3-0.2-6-7.8-5.7L13.3,5.4c0,0-3.3,0-5.4,2c-1,1.1-1.6,2.6-1.5,4.4
				l-0.1,0.6L5.2,12.3z"/>
		</g>
		<g>
			<g>
				<rect x="46.1" y="6" transform="matrix(0.9852 -0.1713 0.1713 0.9852 -0.3865 8.0335)" class="st0" width="0.5" height="0.5"/>
			</g>
			<g>
				<path class="st0" d="M8.5,4.5l0.1-1.1l0.6,0.1L9,4.6L8.5,4.5z M8.7,2.3l0.1-1.1l0.6,0.1L9.3,2.4L8.7,2.3z M9.2,0l0.1-1.1L9.9-1
					L9.8,0H9.2z M9.5-2.3l0.1-1.1l0.6,0.1l-0.1,1.1L9.5-2.3z M9.7-4.5l0.1-1.1l0.6,0.1l-0.2,1.1L9.7-4.5z M10.2-6.8l0.1-1.1l0.6,0.1
					l-0.1,1.1L10.2-6.8z M10.4-9.1l0.1-1.1l0.6,0.1L11-9L10.4-9.1z M10.8-11.5l0.1-1.1l0.6,0.1l-0.1,1.1L10.8-11.5z M11.2-13.6
					l0.1-1.1l0.6,0.1l-0.1,1.1L11.2-13.6z M11.5-16.1l0.1-1.1l0.6,0.1L12.1-16L11.5-16.1z M46,4.7l-0.2-1l0.7-0.2l0.2,1L46,4.7z
					 M11.7-18.3l0.1-1.1l0.6,0.1l-0.1,1.1L11.7-18.3z M45.6,2.4l-0.2-1l0.7-0.2l0.2,1L45.6,2.4z M45.3,0.1l-0.2-1l0.7-0.2l0.2,1
					L45.3,0.1z M12.3-20.6L12.3-20.6c0.1-0.6,0.2-0.8,0.1-1.1l0.6,0.1c-0.1,0.2-0.1,0.6,0,0.9l-0.1,0.2L12.3-20.6z M44.7-2.3l-0.2-1
					l0.7-0.2l0.2,1L44.7-2.3z M12.5-22.9c0.3-0.4,0.2-0.8,0.4-1.2l0.4,0.3c-0.1,0.2-0.4,0.6-0.3,1L12.5-22.9z M44.3-4.6l-0.2-1
					l0.7-0.2l0.2,1L44.3-4.6z M14.1-24.5L13.8-25c0.3-0.4,0.6-0.5,1.1-0.8l0.3,0.5C14.7-25,14.6-24.8,14.1-24.5z M44-6.9l-0.2-1
					l0.7-0.2l0.2,1L44-6.9z M16-25.7l-0.2-0.7c0.3-0.1,0.7-0.2,1.3-0.1v0.5C16.7-25.9,16.4-25.8,16-25.7z M43.6-9.2l-0.2-1l0.7-0.2
					l0.2,1L43.6-9.2z M18.2-25.9l0.1-0.6l1.1,0.1l-0.1,0.6L18.2-25.9z M43.3-11.5l-0.2-1l0.7-0.2l0.2,1L43.3-11.5z M20.5-25.9
					l0.1-0.6l1.1,0.1l-0.1,0.6L20.5-25.9z M22.9-25.9l0.1-0.6l1.1,0.1L24-25.8L22.9-25.9z M42.8-13.5l-0.2-1l0.7-0.2l0.2,1
					L42.8-13.5z M25.3-25.9l0.1-0.6l1.1,0.1l-0.1,0.6L25.3-25.9z M42.4-15.8l-0.2-1l0.7-0.2l0.2,1L42.4-15.8z M27.7-25.9l0.1-0.6
					l1.1,0.1l-0.1,0.6L27.7-25.9z M42.1-18.1l-0.2-1l0.7-0.2l0.2,1L42.1-18.1z M29.8-26l0.1-0.6l1.1,0.1l-0.1,0.6L29.8-26z M32.2-26
					l0.1-0.6l1.1,0.1l-0.1,0.6L32.2-26z M41.7-20.4c-0.1-0.3-0.2-0.7-0.2-1l0.5-0.3c0.1,0.3,0.2,0.7,0.2,1L41.7-20.4z M34.6-26
					l0.1-0.6l0.6,0.1c0.3-0.1,0.6,0.1,0.7-0.2l-0.1,0.6c-0.2-0.1-0.6-0.1-0.6-0.1L34.6-26z M41-22.6c-0.1-0.3-0.5-0.6-0.6-1l0.5-0.3
					c0.1,0.3,0.5,0.6,0.6,1L41-22.6z M36.8-25.8l0.1-0.6c0.6,0.1,0.8,0.2,1.2,0.4l-0.3,0.4C37.6-25.6,37.2-25.9,36.8-25.8z
					 M39.7-24.3c-0.2-0.1-0.5-0.6-0.7-0.7l0.3-0.4c0.4,0.3,0.6,0.4,0.9,0.9L39.7-24.3z"/>
			</g>
			<g>
				<rect x="8.2" y="5.7" transform="matrix(0.1455 -0.9894 0.9894 0.1455 1.2488 13.441)" class="st0" width="0.5" height="0.5"/>
			</g>
		</g>
		<g>
			<path class="st0" d="M12.7-18l0.1-0.6h0.9L13.6-18H12.7z M14.7-18.3l0.1-0.6l1.1,0.1l-0.1,0.6L14.7-18.3z M16.9-18.1l0.1-0.6
				l1.1,0.1L18-18L16.9-18.1z M19.3-18.1l0.1-0.6l1.1,0.1L20.4-18L19.3-18.1z M21.4-18.2l0.1-0.6l1.1,0.1l-0.1,0.6L21.4-18.2z
				 M23.8-18.2l0.1-0.6l1.1,0.1l-0.1,0.6L23.8-18.2z M26.2-18.2l0.1-0.6l1.1,0.1l-0.1,0.6L26.2-18.2z M28.3-18.4l0.1-0.6l1.1,0.1
				l-0.1,0.6L28.3-18.4z M30.7-18.4l0.1-0.6l1.1,0.1l-0.1,0.6L30.7-18.4z M33.1-18.4l0.1-0.6l1.1,0.1l-0.1,0.6L33.1-18.4z
				 M35.2-18.5l0.1-0.6l1.1,0.1l-0.1,0.6L35.2-18.5z M37.6-18.5l0.1-0.6l1.1,0.1l-0.1,0.6L37.6-18.5z M40-18.5l0.1-0.6l1.1,0.1
				l-0.1,0.6L40-18.5z"/>
		</g>
		<g>
			<path class="st0" d="M11.8-9.4l0.1-0.6L13-9.9l-0.1,0.6L11.8-9.4z M14-9.5l0.1-0.6l1.1,0.1l-0.1,0.6L14-9.5z M16.3-9.5l0.1-0.6
				l1.1,0.1l-0.1,0.6L16.3-9.5z M18.7-9.5l0.1-0.6l1.1,0.1l-0.1,0.6L18.7-9.5z M20.7-9.5l0.1-0.6l1.1,0.1l-0.1,0.6L20.7-9.5z
				 M23.1-9.5l0.1-0.5l1.1,0.1l-0.1,0.5L23.1-9.5z M25.5-9.5l0.1-0.6l1.1,0.1l-0.1,0.6L25.5-9.5z M27.9-9.5l0.1-0.6l1.1,0.1L29-9.4
				L27.9-9.5z M30-9.6l0.1-0.6l1.1,0.1l-0.1,0.6L30-9.6z M32.4-9.6l0.1-0.6l1.1,0.1l-0.1,0.6L32.4-9.6z M34.8-9.6l0.1-0.6l1.1,0.1
				l-0.1,0.6L34.8-9.6z M36.9-9.8l0.1-0.6l1.1,0.1L38-9.7L36.9-9.8z M39.3-9.8l0.1-0.6l1.1,0.1l-0.1,0.6L39.3-9.8z M41.7-9.8
				l0.1-0.6l1.1,0.1l-0.1,0.6L41.7-9.8z"/>
		</g>
		<g>
			<path class="st0" d="M9-1.1l0.1-0.6H10L9.9-1.1H9z M10.8-1.1l0.1-0.6L12-1.6L11.9-1L10.8-1.1z M13.2-1.1v-0.6l1.1,0.1V-1
				L13.2-1.1z M15.6-1.1l0.1-0.6l1.1,0.1L16.7-1L15.6-1.1z M17.7-1.3l0.1-0.6l1.1,0.1l-0.1,0.6L17.7-1.3z M20.1-1.3l0.1-0.6l1.1,0.1
				l-0.1,0.6L20.1-1.3z M22.5-1.3l0.1-0.6l1.1,0.1l-0.1,0.6L22.5-1.3z M24.7-1.1l0.1-0.6l1.1,0.1L25.8-1L24.7-1.1z M26.9-1.2L27-1.8
				l1.1,0.1L28-1.1L26.9-1.2z M29.2-1.2l0.1-0.6l1.1,0.1l-0.1,0.6L29.2-1.2z M31.6-1.2l0.1-0.6l1.1,0.1l-0.1,0.6L31.6-1.2z
				 M33.8-1.4L33.9-2L35-1.9l-0.1,0.6L33.8-1.4z M36.1-1.4l0.1-0.5l1.1,0.1l-0.1,0.6L36.1-1.4z M38.5-1.4L38.6-2l1.1,0.1l-0.1,0.6
				L38.5-1.4z M40.9-1.4V-2L42-1.9l-0.1,0.6L40.9-1.4z M42.9-1.3L43-1.9l1.1,0.1L44-1.2L42.9-1.3z"/>
		</g>
	</g>
	<g class="st2">
		<g>
			<path class="st3" d="M31.8,25.9H27l-1,3.3h-2l4.2-12.1h2l4.3,12.1h-2L31.8,25.9z M27.5,24.4h3.8l-1.8-5h-0.3L27.5,24.4z"/>
		</g>
	</g>
</g>
</svg>
