<?xml version="1.0" encoding="utf-8"?>
<!-- Generator: Adobe Illustrator 25.4.1, SVG Export Plug-In . SVG Version: 6.00 Build 0)  -->
<svg version="1.1" id="Layer_1" xmlns="http://www.w3.org/2000/svg" xmlns:xlink="http://www.w3.org/1999/xlink" x="0px" y="0px"
	 viewBox="0 0 55.8 65.6" style="enable-background:new 0 0 55.8 65.6;" xml:space="preserve">
<style type="text/css">
	.st0{fill:#FFFFFF;stroke:#E5E5E5;stroke-width:2;stroke-miterlimit:10;}
	.st1{fill:#E5E5E5;stroke:#E5E5E5;stroke-width:2;stroke-miterlimit:10;}
	.st2{display:none;}
	.st3{display:inline;}
	.st4{fill:#BDBDBD;}
	.st5{fill:#333333;}
</style>
<path class="st0" d="M13.1,11.7v35c0.4,0.8,2.9,5.8,14.6,5.8c12.5,0,15.8-5.4,16.2-6.2v-35c0-1.7,1.2-5,5.4-5c0.5,0,1,0.1,1.4,0.2
	C49.5,3.1,46,1.6,44,1.3H14.5c-2.9,0-5,0.9-6.6,2.5C7,4.7,6.4,5.9,6.1,6.8c0.4-0.1,0.7-0.1,1.2-0.1C11,6.7,13.1,8.4,13.1,11.7z"/>
<path class="st1" d="M54.7,10.9c-0.7-2.4-1.9-3.9-4-4.4c-0.4-0.1-0.9-0.2-1.4-0.2c-4.2,0-5.4,3.3-5.4,5v35
	c-0.4,0.8-3.7,6.2-16.2,6.2c-11.7,0-14.2-5-14.6-5.8v-35c0-3.3-2.1-5-5.8-5c-0.4,0-0.8,0-1.2,0.1c-3.6,0.5-4.7,3.4-5,4.9v42.5
	c0,10.4,9.2,10.4,9.2,10.4h36.3c2.5,0,4.5-0.8,5.6-2.9c2.9-2.9,2.5-7.1,2.5-7.1C55.1,17.6,55.1,12.1,54.7,10.9z"/>
<g id="Layer_2_00000139255274414490067040000003413688518995230080_" class="st2">
	<g class="st3">
		<g>
			<path class="st4" d="M15,61.6c-3.8-2.4-7.5-6.5-9.5-13.3l-5-28.6c-0.1-2.2,0.6-6.2,4.6-6.9c0,0,2.6-0.8,4.6,0.8
				c1.8,1.4,2.7,3.8,2.7,7.6l1.8,26.3c2.2-2.2,7.5-6.9,14.7-7.5c5.2-0.3,10.5,1.8,15.3,6.3l0.1-25.4C44.2,20.6,44,12.4,49,12
				c0.3-0.1,2.6-0.4,4.3,1.2s2.3,4.4,1.9,8.9l-2.7,24.4c0,0-1.2,17.6-21.6,18.6C30.7,64.8,22.2,66.1,15,61.6z M8.8,14.2
				c-1.5-0.9-3.2-0.5-3.2-0.5c-4.2,0.6-4,5.5-3.8,5.6l5,28.6c5.1,18.5,24,15.8,24.2,15.9c19.5-0.9,20.6-17.4,20.7-17.6l2.7-24.4
				c0.6-3.8-0.1-6.6-1.4-7.7c-1.4-1.1-3.3-0.9-3.3-0.9l0,0C45.6,13.6,46,21,46,21l-0.2,26.5c-0.1,0.2-0.3,0.4-0.4,0.6
				c-0.3,0.1-0.3,0.1-0.6-0.1c-5-4.9-10.1-7.1-15.5-7c-8.6,0.6-14.6,7.8-14.7,8c-0.1,0.2-0.5,0.3-0.7,0.2s-0.4-0.3-0.3-0.5L11.9,21
				c0-3.3-0.7-5.5-2.3-6.8C8.8,14.2,8.8,14.2,8.8,14.2z M49.2,12.6L49.2,12.6L49.2,12.6z"/>
		</g>
		<g>
			<path class="st4" d="M6.3,13.6V13c0.1-2,0.6-3.8,1.9-5c2.4-2.4,5.9-2.3,6.2-2.4l26.9-0.5c3.1-0.2,5.3,0.6,6.9,2.2
				c2.1,1.9,2.2,4.6,2.2,4.6l-0.1,0.6L49,12.6l0.1-0.6c0-0.3-0.2-6-7.8-5.7L14.4,6.7c0,0-3.3,0-5.4,2c-1,1.1-1.6,2.6-1.5,4.4
				l-0.1,0.6L6.3,13.6z"/>
		</g>
		<g>
			<g>
				<rect x="47.2" y="7.3" transform="matrix(0.9852 -0.1713 0.1713 0.9852 -0.592 8.2398)" class="st4" width="0.5" height="0.5"/>
			</g>
			<g>
				<path class="st4" d="M9.6,5.8l0.1-1.1l0.6,0.1l-0.2,1.1L9.6,5.8z M9.8,3.6l0.1-1.1l0.6,0.1l-0.1,1.1L9.8,3.6z M10.3,1.3l0.1-1.1
					L11,0.3l-0.1,1H10.3z M10.6-1l0.1-1.1L11.3-2l-0.1,1.1L10.6-1z M10.8-3.2l0.1-1.1l0.6,0.1l-0.2,1.1L10.8-3.2z M11.3-5.5l0.1-1.1
					L12-6.5l-0.1,1.1L11.3-5.5z M11.5-7.8l0.1-1.1l0.6,0.1l-0.1,1.1L11.5-7.8z M11.9-10.2l0.1-1.1l0.6,0.1l-0.1,1.1L11.9-10.2z
					 M12.3-12.3l0.1-1.1l0.6,0.1l-0.1,1.1L12.3-12.3z M12.6-14.8l0.1-1.1l0.6,0.1l-0.1,1.1L12.6-14.8z M47.1,6l-0.2-1l0.7-0.2l0.2,1
					L47.1,6z M12.8-17l0.1-1.1l0.6,0.1l-0.1,1.1L12.8-17z M46.7,3.7l-0.2-1l0.7-0.2l0.2,1L46.7,3.7z M46.4,1.4l-0.2-1l0.7-0.2l0.2,1
					L46.4,1.4z M13.4-19.3L13.4-19.3c0.1-0.6,0.2-0.8,0.1-1.1l0.6,0.1c-0.1,0.2-0.1,0.6,0,0.9L14-19.2L13.4-19.3z M45.8-1l-0.2-1
					l0.7-0.2l0.2,1L45.8-1z M13.6-21.6c0.3-0.4,0.2-0.8,0.4-1.2l0.4,0.3c-0.1,0.2-0.4,0.6-0.3,1L13.6-21.6z M45.4-3.3l-0.2-1
					l0.7-0.2l0.2,1L45.4-3.3z M15.2-23.2l-0.3-0.5c0.3-0.4,0.6-0.5,1.1-0.8l0.3,0.5C15.8-23.7,15.7-23.5,15.2-23.2z M45.1-5.6
					l-0.2-1l0.7-0.2l0.2,1L45.1-5.6z M17.1-24.4l-0.2-0.7c0.3-0.1,0.7-0.2,1.3-0.1v0.5C17.8-24.6,17.5-24.5,17.1-24.4z M44.7-7.9
					l-0.2-1l0.7-0.2l0.2,1L44.7-7.9z M19.3-24.6l0.1-0.6l1.1,0.1l-0.1,0.6L19.3-24.6z M44.4-10.2l-0.2-1l0.7-0.2l0.2,1L44.4-10.2z
					 M21.6-24.6l0.1-0.6l1.1,0.1l-0.1,0.6L21.6-24.6z M24-24.6l0.1-0.6l1.1,0.1l-0.1,0.6L24-24.6z M43.9-12.2l-0.2-1l0.7-0.2l0.2,1
					L43.9-12.2z M26.4-24.6l0.1-0.6l1.1,0.1l-0.1,0.6L26.4-24.6z M43.5-14.5l-0.2-1l0.7-0.2l0.2,1L43.5-14.5z M28.8-24.6l0.1-0.6
					l1.1,0.1l-0.1,0.6L28.8-24.6z M43.2-16.8l-0.2-1l0.7-0.2l0.2,1L43.2-16.8z M30.9-24.7l0.1-0.6l1.1,0.1L32-24.6L30.9-24.7z
					 M33.3-24.7l0.1-0.6l1.1,0.1l-0.1,0.6L33.3-24.7z M42.8-19.1c-0.1-0.3-0.2-0.7-0.2-1l0.5-0.3c0.1,0.3,0.2,0.7,0.2,1L42.8-19.1z
					 M35.7-24.7l0.1-0.6l0.6,0.1c0.3-0.1,0.6,0.1,0.7-0.2L37-24.8c-0.2-0.1-0.6-0.1-0.6-0.1L35.7-24.7z M42.1-21.3
					c-0.1-0.3-0.5-0.6-0.6-1l0.5-0.3c0.1,0.3,0.5,0.6,0.6,1L42.1-21.3z M37.9-24.5l0.1-0.6c0.6,0.1,0.8,0.2,1.2,0.4l-0.3,0.4
					C38.7-24.3,38.3-24.6,37.9-24.5z M40.8-23c-0.2-0.1-0.5-0.6-0.7-0.7l0.3-0.4c0.4,0.3,0.6,0.4,0.9,0.9L40.8-23z"/>
			</g>
			<g>
				<rect x="9.3" y="7" transform="matrix(0.1455 -0.9894 0.9894 0.1455 1.008 15.604)" class="st4" width="0.5" height="0.5"/>
			</g>
		</g>
		<g>
			<path class="st4" d="M13.8-16.7l0.1-0.6h0.9l-0.1,0.6H13.8z M15.8-17l0.1-0.6l1.1,0.1l-0.1,0.6L15.8-17z M18-16.8l0.1-0.6
				l1.1,0.1l-0.1,0.6L18-16.8z M20.4-16.8l0.1-0.6l1.1,0.1l-0.1,0.6L20.4-16.8z M22.5-16.9l0.1-0.6l1.1,0.1l-0.1,0.6L22.5-16.9z
				 M24.9-16.9l0.1-0.6l1.1,0.1L26-16.8L24.9-16.9z M27.3-16.9l0.1-0.6l1.1,0.1l-0.1,0.6L27.3-16.9z M29.4-17.1l0.1-0.6l1.1,0.1
				L30.5-17L29.4-17.1z M31.8-17.1l0.1-0.6l1.1,0.1L32.9-17L31.8-17.1z M34.2-17.1l0.1-0.6l1.1,0.1L35.3-17L34.2-17.1z M36.3-17.2
				l0.1-0.6l1.1,0.1l-0.1,0.6L36.3-17.2z M38.7-17.2l0.1-0.6l1.1,0.1l-0.1,0.6L38.7-17.2z M41.1-17.2l0.1-0.6l1.1,0.1l-0.1,0.6
				L41.1-17.2z"/>
		</g>
		<g>
			<path class="st4" d="M12.9-8.1L13-8.7l1.1,0.1L14-8L12.9-8.1z M15.1-8.2l0.1-0.6l1.1,0.1l-0.1,0.6L15.1-8.2z M17.4-8.2l0.1-0.6
				l1.1,0.1l-0.1,0.6L17.4-8.2z M19.8-8.2l0.1-0.6L21-8.7l-0.1,0.6L19.8-8.2z M21.8-8.2l0.1-0.6L23-8.7l-0.1,0.6L21.8-8.2z
				 M24.2-8.2l0.1-0.5l1.1,0.1l-0.1,0.5L24.2-8.2z M26.6-8.2l0.1-0.6l1.1,0.1l-0.1,0.6L26.6-8.2z M29-8.2l0.1-0.6l1.1,0.1l-0.1,0.6
				L29-8.2z M31.1-8.3l0.1-0.6l1.1,0.1l-0.1,0.6L31.1-8.3z M33.5-8.3l0.1-0.6l1.1,0.1l-0.1,0.6L33.5-8.3z M35.9-8.3L36-8.9l1.1,0.1
				L37-8.2L35.9-8.3z M38-8.5l0.1-0.6L39.2-9l-0.1,0.6L38-8.5z M40.4-8.5l0.1-0.6L41.6-9l-0.1,0.6L40.4-8.5z M42.8-8.5l0.1-0.6L44-9
				l-0.1,0.6L42.8-8.5z"/>
		</g>
		<g>
			<path class="st4" d="M10.1,0.2l0.1-0.6h0.9L11,0.2H10.1z M11.9,0.2L12-0.4l1.1,0.1L13,0.3L11.9,0.2z M14.3,0.2v-0.6l1.1,0.1v0.6
				L14.3,0.2z M16.7,0.2l0.1-0.6l1.1,0.1l-0.1,0.6L16.7,0.2z M18.8,0l0.1-0.6L20-0.5l-0.1,0.6L18.8,0z M21.2,0l0.1-0.6l1.1,0.1
				l-0.1,0.6L21.2,0z M23.6,0l0.1-0.6l1.1,0.1l-0.1,0.6L23.6,0z M25.8,0.2l0.1-0.6L27-0.3l-0.1,0.6L25.8,0.2z M28,0.1l0.1-0.6
				l1.1,0.1l-0.1,0.6L28,0.1z M30.3,0.1l0.1-0.6l1.1,0.1l-0.1,0.6L30.3,0.1z M32.7,0.1l0.1-0.6l1.1,0.1l-0.1,0.6L32.7,0.1z
				 M34.9-0.1L35-0.7l1.1,0.1L36,0L34.9-0.1z M37.2-0.1l0.1-0.5l1.1,0.1l-0.1,0.6L37.2-0.1z M39.6-0.1l0.1-0.6l1.1,0.1L40.7,0
				L39.6-0.1z M42-0.1v-0.6l1.1,0.1L43,0L42-0.1z M44,0l0.1-0.6l1.1,0.1l-0.1,0.6L44,0z"/>
		</g>
	</g>
	<g class="st3">
		<g>
			<path class="st5" d="M32.9,27.2h-4.8l-1,3.3h-2l4.2-12.1h2l4.3,12.1h-2L32.9,27.2z M28.6,25.7h3.8l-1.8-5h-0.3L28.6,25.7z"/>
		</g>
	</g>
</g>
</svg>
