<?xml version="1.0" encoding="utf-8"?>
<!-- Generator: Adobe Illustrator 25.4.1, SVG Export Plug-In . SVG Version: 6.00 Build 0)  -->
<svg version="1.1" id="Layer_1" xmlns="http://www.w3.org/2000/svg" xmlns:xlink="http://www.w3.org/1999/xlink" x="0px" y="0px"
	 viewBox="0 0 49.3 86" style="enable-background:new 0 0 49.3 86;" xml:space="preserve">
<style type="text/css">
	.st0{fill:#908E8E;}
</style>
<path class="st0" d="M8.4,60.8c0.2,1.3,1.4,2.2,2.7,2.2h0.6L7.9,73.5c-0.9,3-0.4,6.1,1.4,8.6S14,86,17,86h28.4
	c1.9,0,3.5-1.6,3.5-3.5S47.5,79,45.5,79H18c-1.1,0-2-0.5-2.7-1.3c-0.6-0.9-0.8-1.9-0.5-2.9L18.9,63h24c2.5,0,4.8-1.4,5.8-3.5
	c0.8-1.7,0.8-3.6-0.2-5.2c-0.9-1.5-2.6-2.4-4.3-2.4l-26.4,0.6c-0.4,0-0.7-0.2-0.7-0.6L15,42.4h16c0.6,0,1.1,0.1,1.6,0.4l1.1,0.6
	c1.5,0.8,3.1,1.2,4.7,1.2c1.7,0,3.4-0.5,4.9-1.4l0.2-0.1c1.3-0.8,2.1-2.2,2.1-3.7c0-2.4-1.9-4.3-4.3-4.3h-28l-2.9-13
	c-0.1-0.6-0.2-1.2-0.1-1.8L11,2.6c0-0.7-0.2-1.5-0.8-2C9.8,0.3,9.2,0,8.4,0c0,0,0,0-0.1,0C4.2,0,0.8,3.2,0.6,7.4L0,20.5
	c0,0.7,0,1.5,0.2,2.2L8.4,60.8z M2.7,7.5C2.8,4.4,5.3,2,8.4,2l0,0c0.2,0,0.4,0.1,0.5,0.2C9,2.3,9.1,2.5,9.1,2.7L8.4,20.4
	c0,0.7,0,1.5,0.2,2.2l2.8,12.6h-0.2c-2,0-3.6,1.6-3.6,3.6s1.6,3.6,3.6,3.6H13l2.2,9.9c0.2,1.3,1.4,2.2,2.7,2.2c0,0,0,0,0.1,0
	l26.4-0.6c1.1,0,2.1,0.6,2.6,1.5c0.6,0.9,0.6,2.1,0.1,3.2c-0.7,1.5-2.3,2.4-4,2.4H19.6h-7.1h-1.3c-0.3,0-0.6-0.2-0.7-0.6L2.3,22.3
	c-0.1-0.6-0.2-1.2-0.1-1.8L2.7,7.5z M43.6,39.6c0,0.8-0.4,1.5-1.1,1.9l-0.2,0.1C40,43,37,43,34.7,41.7l-1.1-0.6
	c-0.8-0.4-1.7-0.7-2.6-0.7H11.1c-0.9,0-1.6-0.7-1.6-1.6s0.7-1.6,1.6-1.6h30.3C42.6,37.4,43.6,38.4,43.6,39.6z M12.9,74.1
	c-0.5,1.6-0.2,3.3,0.8,4.7c1,1.4,2.6,2.2,4.3,2.2h27.6c0.8,0,1.5,0.7,1.5,1.5S46.4,84,45.5,84H17.1c-2.4,0-4.7-1.1-6.1-3.1
	c-1.4-2-1.9-4.4-1.1-6.7l4-11.1h2.9L12.9,74.1z"/>
</svg>
